<svg width="404" height="103" viewBox="0 0 404 103" fill="none" xmlns="http://www.w3.org/2000/svg">
<path d="M140.425 80.9227C140.425 81.8191 140.276 82.6188 139.977 83.3218C139.696 84.0249 139.239 84.6224 138.606 85.1146C137.991 85.6067 137.191 85.9846 136.207 86.2482C135.223 86.5118 134.028 86.6524 132.621 86.67L140.689 94.9746H136.444C136.409 94.8692 136.304 94.711 136.128 94.5001C135.987 94.3067 135.785 94.0607 135.521 93.7619C135.258 93.4455 134.88 93.0325 134.388 92.5228L128.799 86.67H126.03V87.3555C126.03 88.9549 126.039 90.2467 126.057 91.231C126.092 92.1976 126.127 92.9622 126.162 93.5246C126.197 94.1925 126.241 94.6758 126.294 94.9746H122.603C122.656 94.6758 122.7 94.1925 122.735 93.5246C122.77 92.9622 122.797 92.1976 122.814 91.231C122.849 90.2467 122.867 88.9549 122.867 87.3555V82.8209C122.867 81.2215 122.849 79.9297 122.814 78.9454C122.797 77.9612 122.77 77.1879 122.735 76.6254C122.7 75.9751 122.656 75.5006 122.603 75.2018H132.252C133.711 75.2018 134.959 75.3336 135.996 75.5972C137.033 75.8433 137.877 76.2124 138.527 76.7045C139.195 77.1791 139.678 77.7766 139.977 78.4973C140.276 79.2003 140.425 80.0088 140.425 80.9227ZM133.017 84.5609C134.546 84.5609 135.636 84.227 136.286 83.5591C136.936 82.8736 137.261 81.9948 137.261 80.9227C137.261 79.8682 136.936 79.007 136.286 78.3391C135.636 77.6536 134.546 77.3109 133.017 77.3109H126.03V84.5609H133.017ZM157.296 77.3109V83.5064H169.898V85.6155H157.296V92.8655H171.665L171.137 94.9746H153.869C153.922 94.6758 153.966 94.1925 154.001 93.5246C154.036 92.9622 154.062 92.1976 154.08 91.231C154.115 90.2467 154.133 88.9549 154.133 87.3555V82.8209C154.133 81.2215 154.115 79.9297 154.08 78.9454C154.062 77.9612 154.036 77.1879 154.001 76.6254C153.966 75.9751 153.922 75.5006 153.869 75.2018H171.137L171.665 77.3109H157.296ZM192.885 77.0209C191.25 77.0209 189.941 77.2318 188.956 77.6536C187.99 78.0754 187.506 78.7785 187.506 79.7627C187.506 80.3427 187.717 80.8348 188.139 81.2391C188.561 81.6433 189.106 81.9948 189.774 82.2936C190.459 82.5749 191.241 82.8297 192.12 83.0582C192.999 83.2867 193.887 83.5327 194.783 83.7964C195.697 84.0424 196.593 84.3236 197.472 84.64C198.351 84.9388 199.124 85.3079 199.792 85.7473C200.477 86.1867 201.031 86.7228 201.453 87.3555C201.875 87.9882 202.086 88.744 202.086 89.6228C202.086 90.484 201.901 91.2573 201.532 91.9428C201.18 92.6282 200.644 93.217 199.924 93.7091C199.203 94.2013 198.298 94.5792 197.208 94.8428C196.136 95.1064 194.88 95.2382 193.438 95.2382C191.698 95.2382 190.231 95.0273 189.036 94.6055C187.84 94.1661 186.883 93.6828 186.162 93.1555C185.283 92.5579 184.589 91.8725 184.079 91.0991L186.056 89.28C186.426 90.0006 186.944 90.6422 187.612 91.2046C188.174 91.6967 188.913 92.1449 189.826 92.5491C190.758 92.9534 191.909 93.1555 193.28 93.1555C194.932 93.1555 196.242 92.9007 197.208 92.391C198.175 91.8813 198.658 91.0464 198.658 89.8864C198.658 89.2537 198.447 88.7264 198.026 88.3046C197.604 87.8828 197.05 87.5225 196.365 87.2237C195.697 86.9073 194.923 86.6437 194.045 86.4327C193.166 86.2043 192.27 85.9758 191.356 85.7473C190.459 85.5012 189.572 85.2376 188.693 84.9564C187.814 84.6752 187.032 84.3324 186.346 83.9282C185.679 83.5239 185.134 83.0318 184.712 82.4518C184.29 81.8542 184.079 81.1336 184.079 80.29C184.079 79.3585 184.308 78.5588 184.765 77.8909C185.222 77.2054 185.846 76.6518 186.636 76.23C187.427 75.7906 188.341 75.4654 189.378 75.2545C190.433 75.0436 191.549 74.9381 192.726 74.9381C193.887 74.9381 194.923 75.0436 195.837 75.2545C196.751 75.4478 197.551 75.7027 198.237 76.0191C198.94 76.3179 199.537 76.643 200.029 76.9945C200.89 77.6097 201.576 78.3039 202.086 79.0773L200.108 80.8964C199.739 80.1757 199.221 79.5254 198.553 78.9454C197.99 78.4709 197.252 78.0315 196.338 77.6273C195.424 77.223 194.273 77.0209 192.885 77.0209ZM223.26 77.3109V87.3555C223.26 88.9549 223.269 90.2467 223.286 91.231C223.322 92.1976 223.357 92.9622 223.392 93.5246C223.427 94.1925 223.471 94.6758 223.524 94.9746H219.833C219.886 94.6758 219.929 94.1925 219.965 93.5246C220 92.9622 220.026 92.1976 220.044 91.231C220.079 90.2467 220.096 88.9549 220.096 87.3555V77.3109H212.899L213.426 75.2018H229.93L230.457 77.3109H223.26ZM252.288 74.9381C254.133 74.9381 255.777 75.193 257.218 75.7027C258.659 76.2124 259.863 76.9242 260.83 77.8382C261.814 78.7345 262.561 79.8067 263.071 81.0545C263.58 82.2848 263.835 83.6294 263.835 85.0882C263.835 86.547 263.58 87.9003 263.071 89.1482C262.561 90.3785 261.814 91.4507 260.83 92.3646C259.863 93.261 258.659 93.964 257.218 94.4737C255.777 94.9834 254.133 95.2382 252.288 95.2382C250.443 95.2382 248.799 94.9834 247.358 94.4737C245.917 93.964 244.704 93.261 243.72 92.3646C242.753 91.4507 242.015 90.3785 241.505 89.1482C240.996 87.9003 240.741 86.547 240.741 85.0882C240.741 83.6294 240.996 82.2848 241.505 81.0545C242.015 79.8067 242.753 78.7345 243.72 77.8382C244.704 76.9242 245.917 76.2124 247.358 75.7027C248.799 75.193 250.443 74.9381 252.288 74.9381ZM260.408 85.0882C260.408 84.0336 260.259 83.023 259.96 82.0564C259.679 81.0897 259.213 80.2373 258.563 79.4991C257.93 78.7433 257.095 78.1457 256.058 77.7063C255.039 77.2494 253.782 77.0209 252.288 77.0209C250.794 77.0209 249.529 77.2494 248.492 77.7063C247.455 78.1457 246.611 78.7433 245.961 79.4991C245.328 80.2373 244.871 81.0897 244.59 82.0564C244.309 83.023 244.168 84.0336 244.168 85.0882C244.168 86.1427 244.309 87.1534 244.59 88.12C244.871 89.0867 245.328 89.9479 245.961 90.7037C246.611 91.4419 247.455 92.0394 248.492 92.4964C249.529 92.9358 250.794 93.1555 252.288 93.1555C253.782 93.1555 255.039 92.9358 256.058 92.4964C257.095 92.0394 257.93 91.4419 258.563 90.7037C259.213 89.9479 259.679 89.0867 259.96 88.12C260.259 87.1534 260.408 86.1427 260.408 85.0882ZM294.566 80.9227C294.566 81.8191 294.416 82.6188 294.117 83.3218C293.836 84.0249 293.379 84.6224 292.747 85.1146C292.131 85.6067 291.332 85.9846 290.347 86.2482C289.363 86.5118 288.168 86.6524 286.762 86.67L294.829 94.9746H290.585C290.55 94.8692 290.444 94.711 290.268 94.5001C290.128 94.3067 289.926 94.0607 289.662 93.7619C289.398 93.4455 289.02 93.0325 288.528 92.5228L282.939 86.67H280.171V87.3555C280.171 88.9549 280.18 90.2467 280.197 91.231C280.233 92.1976 280.268 92.9622 280.303 93.5246C280.338 94.1925 280.382 94.6758 280.435 94.9746H276.744C276.796 94.6758 276.84 94.1925 276.876 93.5246C276.911 92.9622 276.937 92.1976 276.955 91.231C276.99 90.2467 277.007 88.9549 277.007 87.3555V82.8209C277.007 81.2215 276.99 79.9297 276.955 78.9454C276.937 77.9612 276.911 77.1879 276.876 76.6254C276.84 75.9751 276.796 75.5006 276.744 75.2018H286.393C287.852 75.2018 289.1 75.3336 290.136 75.5972C291.173 75.8433 292.017 76.2124 292.667 76.7045C293.335 77.1791 293.819 77.7766 294.117 78.4973C294.416 79.2003 294.566 80.0088 294.566 80.9227ZM287.157 84.5609C288.686 84.5609 289.776 84.227 290.426 83.5591C291.077 82.8736 291.402 81.9948 291.402 80.9227C291.402 79.8682 291.077 79.007 290.426 78.3391C289.776 77.6536 288.686 77.3109 287.157 77.3109H280.171V84.5609H287.157ZM311.437 77.3109V83.5064H324.039V85.6155H311.437V92.8655H325.805L325.278 94.9746H308.009C308.062 94.6758 308.106 94.1925 308.141 93.5246C308.176 92.9622 308.203 92.1976 308.22 91.231C308.256 90.2467 308.273 88.9549 308.273 87.3555V82.8209C308.273 81.2215 308.256 79.9297 308.22 78.9454C308.203 77.9612 308.176 77.1879 308.141 76.6254C308.106 75.9751 308.062 75.5006 308.009 75.2018H325.278L325.805 77.3109H311.437ZM356.557 80.9227C356.557 81.8191 356.407 82.6188 356.108 83.3218C355.827 84.0249 355.37 84.6224 354.737 85.1146C354.122 85.6067 353.323 85.9846 352.338 86.2482C351.354 86.5118 350.159 86.6524 348.753 86.67L356.82 94.9746H352.576C352.54 94.8692 352.435 94.711 352.259 94.5001C352.119 94.3067 351.917 94.0607 351.653 93.7619C351.389 93.4455 351.011 93.0325 350.519 92.5228L344.93 86.67H342.162V87.3555C342.162 88.9549 342.171 90.2467 342.188 91.231C342.223 92.1976 342.259 92.9622 342.294 93.5246C342.329 94.1925 342.373 94.6758 342.426 94.9746H338.735C338.787 94.6758 338.831 94.1925 338.866 93.5246C338.902 92.9622 338.928 92.1976 338.946 91.231C338.981 90.2467 338.998 88.9549 338.998 87.3555V82.8209C338.998 81.2215 338.981 79.9297 338.946 78.9454C338.928 77.9612 338.902 77.1879 338.866 76.6254C338.831 75.9751 338.787 75.5006 338.735 75.2018H348.384C349.843 75.2018 351.09 75.3336 352.127 75.5972C353.164 75.8433 354.008 76.2124 354.658 76.7045C355.326 77.1791 355.81 77.7766 356.108 78.4973C356.407 79.2003 356.557 80.0088 356.557 80.9227ZM349.148 84.5609C350.677 84.5609 351.767 84.227 352.417 83.5591C353.068 82.8736 353.393 81.9948 353.393 80.9227C353.393 79.8682 353.068 79.007 352.417 78.3391C351.767 77.6536 350.677 77.3109 349.148 77.3109H342.162V84.5609H349.148Z" fill="black"/>
<path d="M95.9787 22.6064H96.5573C98.9821 22.7166 101.021 23.2126 102.674 24.0943C104.328 24.921 105.65 25.9956 106.642 27.3182C107.634 28.5857 108.295 30.0185 108.626 31.6166C109.012 33.1596 109.122 34.6751 108.957 36.163C108.681 38.5878 107.799 40.6268 106.311 42.28C104.879 43.9333 103.143 45.311 101.104 46.4131C99.0647 47.5153 96.9155 48.3695 94.6561 48.9757C92.3966 49.5267 90.3025 49.9125 88.3738 50.1329V59.0604C88.3738 59.9422 88.6217 60.7412 89.1177 61.4576C89.6137 62.1189 90.2474 62.5874 91.0189 62.8629V63.9375H75.2305V62.8629C76.002 62.5874 76.6357 62.1189 77.1317 61.4576C77.6828 60.7412 77.9583 59.9422 77.9583 59.0604V27.4835C77.9583 26.6018 77.6828 25.8302 77.1317 25.169C76.6357 24.4525 76.002 23.929 75.2305 23.5984V22.6064H95.9787ZM88.3738 26.6569V44.5946C90.7985 44.4843 92.81 43.9884 94.4081 43.1066C96.0613 42.1698 97.3288 41.0676 98.2105 39.8002C99.1474 38.4776 99.726 37.0723 99.9465 35.5844C100.222 34.0414 100.222 32.6361 99.9465 31.3686C99.726 30.046 99.2576 28.9439 98.5412 28.0621C97.8799 27.1804 97.0257 26.712 95.9787 26.6569H88.3738ZM132.107 22.6064H132.685C135.11 22.6615 137.176 23.0197 138.885 23.681C140.593 24.2872 141.943 25.1138 142.935 26.1609C143.927 27.208 144.616 28.4203 145.002 29.798C145.388 31.1757 145.47 32.6361 145.25 34.1791C144.974 36.4937 144.203 38.45 142.935 40.0481C141.723 41.5912 140.207 42.8862 138.389 43.9333L144.754 55.506L147.73 61.0443C148.005 61.4852 148.308 61.8709 148.639 62.2016C148.97 62.5322 149.355 62.7527 149.796 62.8629V63.9375H143.018C141.089 63.9375 139.519 63.4966 138.306 62.6149C137.149 61.7332 136.129 60.4932 135.248 58.8951L129.296 47.1571C128.469 47.3224 127.643 47.4877 126.816 47.6531C125.99 47.7633 125.19 47.8735 124.419 47.9837V59.0604C124.419 59.9422 124.667 60.7412 125.163 61.4576C125.714 62.1189 126.375 62.5874 127.147 62.8629V63.9375H111.276V62.8629C112.102 62.5874 112.764 62.1189 113.26 61.4576C113.756 60.7412 114.004 59.9422 114.004 59.0604V27.4835C114.004 26.6018 113.756 25.8302 113.26 25.169C112.764 24.4525 112.102 23.929 111.276 23.5984V22.6064H132.107ZM124.419 42.6933C126.899 42.6382 128.965 42.2249 130.619 41.4534C132.272 40.6268 133.539 39.6348 134.421 38.4776C135.358 37.3203 135.937 36.0804 136.157 34.7578C136.433 33.3801 136.433 32.1126 136.157 30.9553C135.881 29.7429 135.385 28.751 134.669 27.9795C134.008 27.1528 133.154 26.712 132.107 26.6569H124.419V42.6933ZM150.194 41.784C150.194 37.2652 151.158 33.5178 153.087 30.542C155.071 27.511 157.523 25.2516 160.444 23.7637C163.365 22.2758 166.534 21.5318 169.95 21.5318C173.367 21.5318 176.536 22.2758 179.456 23.7637C182.377 25.2516 184.802 27.511 186.731 30.542C188.715 33.5178 189.707 37.2652 189.707 41.784V44.0159C189.707 48.5348 188.715 52.3097 186.731 55.3406C184.802 58.3165 182.377 60.5759 179.456 62.1189C176.536 63.6069 173.367 64.3508 169.95 64.3508C166.534 64.3508 163.365 63.6069 160.444 62.1189C157.523 60.5759 155.071 58.3165 153.087 55.3406C151.158 52.3097 150.194 48.5348 150.194 44.0159V41.784ZM161.105 42.8587C161.105 46.6611 161.546 49.8298 162.428 52.3648C163.31 54.8447 164.384 56.7183 165.652 57.9858C166.974 59.2533 168.38 59.8871 169.868 59.8871C171.411 59.8319 172.816 59.1982 174.083 57.9858C175.406 56.7183 176.481 54.8447 177.307 52.3648C178.189 49.8298 178.63 46.6611 178.63 42.8587C178.63 39.1113 178.189 35.9977 177.307 33.5178C176.481 30.9829 175.406 29.0816 174.083 27.8141C172.816 26.5467 171.411 25.9129 169.868 25.9129C168.38 25.9129 166.974 26.5467 165.652 27.8141C164.384 29.0816 163.31 30.9829 162.428 33.5178C161.546 35.9977 161.105 39.1113 161.105 42.8587ZM215.897 22.6064L217.302 27.8968L218.046 30.6247H216.31C216.035 29.8531 215.539 29.2194 214.822 28.7234C214.161 28.1723 213.362 27.8968 212.425 27.8968H204.985V40.4614H210.276C211.654 40.4063 212.838 39.8277 213.83 38.7255H215.484C215.043 40.3237 214.602 41.9494 214.161 43.6026C213.72 45.2559 213.279 46.9091 212.838 48.5623H211.929C211.654 47.7908 211.24 47.1846 210.689 46.7438C210.138 46.2478 209.477 45.9447 208.705 45.8345H204.985V59.0604C204.985 59.9422 205.233 60.7412 205.729 61.4576C206.281 62.174 206.942 62.67 207.713 62.9456V63.9375H191.842V62.9456C192.614 62.67 193.247 62.174 193.743 61.4576C194.295 60.7412 194.57 59.9422 194.57 59.0604V27.4835C194.57 26.6018 194.295 25.8027 193.743 25.0863C193.247 24.3699 192.614 23.8739 191.842 23.5984V22.6064H215.897ZM234.958 22.6064V23.5984C234.186 23.8739 233.552 24.3699 233.056 25.0863C232.56 25.8027 232.312 26.6018 232.312 27.4835V59.0604C232.312 59.9422 232.56 60.7412 233.056 61.4576C233.552 62.174 234.186 62.67 234.958 62.9456V63.9375H219.169V62.9456C219.996 62.67 220.657 62.174 221.153 61.4576C221.649 60.7412 221.897 59.9422 221.897 59.0604V27.4835C221.897 26.6018 221.649 25.8027 221.153 25.0863C220.657 24.3699 219.996 23.8739 219.169 23.5984V22.6064H234.958ZM270.91 22.6064L272.315 27.9795L272.811 29.7154H271.075C270.193 28.5581 269.009 27.9795 267.521 27.9795H260.825V59.0604C260.825 59.9422 261.073 60.7412 261.569 61.4576C262.065 62.1189 262.726 62.5874 263.553 62.8629V63.9375H247.764V62.8629C248.536 62.5874 249.17 62.1189 249.666 61.4576C250.162 60.7412 250.41 59.9422 250.41 59.0604V27.9795H243.797C242.364 27.9795 241.151 28.5581 240.16 29.7154H238.506L239.002 27.9795L240.408 22.6064H270.91ZM266.8 62.9456C267.682 62.67 268.453 62.174 269.115 61.4576C269.831 60.7412 270.327 59.9146 270.602 58.9778L279.117 27.1528C279.282 26.4915 279.227 25.8302 278.951 25.169C278.676 24.5077 278.235 23.9841 277.629 23.5984V22.6064H290.689L300.443 58.9778C300.719 59.9146 301.187 60.7412 301.849 61.4576C302.51 62.174 303.309 62.67 304.246 62.9456V63.9375H288.623V62.7802C289.229 62.4496 289.67 61.9536 289.945 61.2923C290.276 60.631 290.304 59.8595 290.028 58.9778L288.209 52.2821H277.711L275.893 58.9778C275.672 59.8595 275.672 60.631 275.893 61.2923C276.168 61.9536 276.609 62.4496 277.215 62.7802V63.9375H266.8V62.9456ZM287.218 48.2317L283.002 32.5259L278.786 48.2317H287.218ZM332.668 43.272C334.983 43.6577 336.801 44.4568 338.124 45.6692C339.502 46.8264 340.411 48.1766 340.852 49.7196C341.348 51.2075 341.375 52.8057 340.934 54.514C340.549 56.1673 339.777 57.7103 338.62 59.1431C337.518 60.5208 336.03 61.6781 334.156 62.6149C332.282 63.4966 330.106 63.9375 327.626 63.9375H307.043V62.9456C307.814 62.67 308.448 62.174 308.944 61.4576C309.44 60.7412 309.688 59.9146 309.688 58.9778V27.5662C309.688 26.6293 309.44 25.8027 308.944 25.0863C308.448 24.3699 307.814 23.8739 307.043 23.5984V22.6064H327.047L328.287 22.6891C330.546 22.7993 332.503 23.2677 334.156 24.0943C335.809 24.8659 337.132 25.8578 338.124 27.0702C339.116 28.2826 339.777 29.6327 340.108 31.1206C340.438 32.6085 340.383 34.0965 339.942 35.5844C339.502 37.0723 338.675 38.5051 337.463 39.8828C336.305 41.2054 334.707 42.3351 332.668 43.272ZM320.186 40.8748H323.906C325.449 40.8748 326.716 40.5441 327.708 39.8828C328.755 39.1664 329.527 38.3122 330.023 37.3203C330.574 36.2732 330.905 35.1435 331.015 33.9311C331.125 32.6637 331.015 31.5064 330.684 30.4593C330.409 29.4123 329.968 28.5305 329.362 27.8141C328.755 27.0977 328.012 26.712 327.13 26.6569H320.186V26.8222V28.9714V40.8748ZM323.906 59.8871C325.449 59.8871 326.716 59.5564 327.708 58.8951C328.755 58.1787 329.527 57.3245 330.023 56.3326C330.574 55.2855 330.905 54.1558 331.015 52.9434C331.125 51.6759 331.015 50.5187 330.684 49.4716C330.409 48.4246 329.968 47.5428 329.362 46.8264C328.755 46.11 328.012 45.7243 327.13 45.6692H320.186V45.8345V59.8871H323.906ZM364.824 58.5645C366.423 58.3991 367.497 57.6276 368.048 56.2499H369.04L366.891 63.9375H343.25V62.9456C344.021 62.67 344.655 62.174 345.151 61.4576C345.702 60.7412 345.977 59.9422 345.977 59.0604V27.4835C345.977 26.5467 345.702 25.7476 345.151 25.0863C344.655 24.3699 344.021 23.8739 343.25 23.5984V22.6064H359.121V23.5984C358.294 23.8739 357.633 24.3699 357.137 25.0863C356.641 25.7476 356.393 26.5467 356.393 27.4835V58.5645H364.824ZM392.459 58.6471C393.34 58.6471 394.14 58.3991 394.856 57.9032C395.572 57.3521 396.068 56.6908 396.344 55.9193H398.08L395.931 63.9375H371.545V62.9456C372.317 62.67 372.95 62.174 373.446 61.4576C373.998 60.7412 374.273 59.9146 374.273 58.9778V27.5662C374.273 26.6293 373.998 25.8027 373.446 25.0863C372.95 24.3699 372.317 23.8739 371.545 23.5984V22.6064H395.517L396.922 27.8968L397.749 30.6247H395.931C395.655 29.8531 395.159 29.2194 394.443 28.7234C393.781 28.1723 392.982 27.8968 392.045 27.8968H384.606V40.4614H389.896C391.274 40.4614 392.459 39.8828 393.451 38.7255H395.187L392.459 48.4797H391.549C391.274 47.7082 390.833 47.102 390.227 46.6611C389.676 46.1651 389.014 45.862 388.243 45.7518H384.606V58.6471H392.459Z" fill="black"/>
<path d="M24.7891 60.2563C24.7891 56.8391 27.3102 56.3859 29.8585 55.9941V65.0358C26.6051 63.9066 24.7891 63.133 24.7891 60.2563Z" fill="black"/>
<path d="M58.7669 85.1412C35.9835 108.118 -11.3494 93.4002 3.8099 52.613C7.81889 41.8265 0.820312 32.397 0.820312 32.397C0.820312 32.397 7.76595 34.8742 14.2246 42.6529C14.2246 42.6529 20.4608 38.6728 24.5587 30.8038C28.6567 22.9344 24.5587 10 24.5587 10C24.5587 10 55.7616 30.1253 34.4474 50.3413L34.4084 50.3878V47.3145H29.8586V50.5198C16.2689 51.3295 14.4465 68.6632 29.8586 71.2982V81.6973C26.8436 81.3288 23.6168 79.1814 20.6853 77.4262L17.7783 82.1523C20.1694 83.5622 24.5181 86.8079 29.8586 87.1536V92.305H34.4084V88.7713C46.6264 93.3 58.6207 85.2401 58.7669 85.1412Z" fill="black"/>
<path d="M34.3828 81.526V72.4844C37.6358 73.614 39.4523 74.3876 39.4523 77.2638C39.4523 80.6815 36.9311 81.1347 34.3828 81.526Z" fill="#31BF00"/>
<path d="M35.0903 86.991C49.1438 85.8274 50.12 68.7183 34.4102 66.3051V55.9937C35.6049 56.1503 36.8327 56.6306 38.0617 57.2631C39.1734 57.8341 40.2852 58.5294 41.3744 59.2209L44.3966 54.2707C42.4341 53.0611 39.8498 51.5983 36.8521 50.9051C43.0634 45.0528 45.901 35.3039 56.8098 32.25C45.9141 44.0655 60.375 52.2103 61.4126 64.584C62.3693 75.9915 52.4141 89.8787 35.0903 86.991Z" fill="#31BF00"/>
<mask id="mask0_192_924" style="mask-type:alpha" maskUnits="userSpaceOnUse" x="0" y="10" width="399" height="86">
<rect x="0.820312" y="10" width="397.312" height="86" fill="#D9D9D9"/>
</mask>
<g mask="url(#mask0_192_924)">
</g>
</svg>
